# xmcd
#
# Track frame offsets:
#	150
#	14415
#	28714
#	42437
#	56211
#	72004
#	85683
#	99467
#	111161
#	122833
#	153265
#	165064
#	178738
#	192902
#	204732
#	217073
#	229660
#	243886
#	257113
#	269628
#
# Disc length: 3776 seconds
# Revision: 1
# Processed by: cddbd v1.5.2PL0 Copyright (c) Steve Scherf et al.
# Submitted via: dBpowerAMP V12.0
#
DISCID=180ebe14
DTITLE=Various Artist - The Golden Age of the Blues
DYEAR=2012
DGENRE=Blues
TTITLE0=Lead Belly - The Gallis Pole
TTITLE1=Charley Patton - Shake It and Break It (But Don't Let It Fall Mama)
TTITLE2=Blind Blake - Blind Artur's Breakdown
TTITLE3=Big Bill Broonzy - Key to the Highway
TTITLE4=Bessie Smith - 'Tain't Nobody's Business If I Do
TTITLE5=Blind Lemon Jefferson - Matchbox Blues
TTITLE6=Memphis Minnie - Me and My Chauffeur Blues
TTITLE7=Sonny Boy Williamson - Don't Start Me Talkin'
TTITLE8=Blind Willie McTell - Statesboro Blues
TTITLE9=Son House - Walking Blues
TTITLE10=Tampa Red - Let Me Play With Your Poodle
TTITLE11=T-Bone Walker - Call It Stormy Monday (But Tuesday Is Just As Bad)
TTITLE12=Howlin' Wolf - Smokestack Lightnin'
TTITLE13=Robert Johnson - Me and the Devil Blues
TTITLE14=Lightnin’ Hopkins - Coffee Blues
TTITLE15=Muddy Waters - I'm Your Hoochie Coochie Man
TTITLE16=John Lee Hooker - Boogie Chillen'
TTITLE17=Elmore James - Dust My Broom
TTITLE18=Jimmy Reed - Honest I Do
TTITLE19=B.B. King - Three O'Clock Blues
EXTD=
EXTT0=
EXTT1=
EXTT2=
EXTT3=
EXTT4=
EXTT5=
EXTT6=
EXTT7=
EXTT8=
EXTT9=
EXTT10=
EXTT11=
EXTT12=
EXTT13=
EXTT14=
EXTT15=
EXTT16=
EXTT17=
EXTT18=
EXTT19=
PLAYORDER=
